<?xml version="1.0" standalone="no"?><!DOCTYPE svg PUBLIC "-//W3C//DTD SVG 1.1//EN" "http://www.w3.org/Graphics/SVG/1.1/DTD/svg11.dtd"><svg t="1756436588210" class="icon" viewBox="0 0 1024 1024" version="1.1" xmlns="http://www.w3.org/2000/svg" p-id="2610" xmlns:xlink="http://www.w3.org/1999/xlink" width="48" height="48"><path d="M1024 314.504533v563.2A146.705067 146.705067 0 0 1 877.704533 1024H146.295467A146.705067 146.705067 0 0 1 0 877.704533V146.295467A146.705067 146.705067 0 0 1 146.295467 0h731.409066A146.705067 146.705067 0 0 1 1024 146.295467v168.209066zM65.8432 373.077333V614.4h256v-241.3568h-256z m329.1136 0V614.4h241.390933v-241.3568H394.922667z m307.2 0V614.4h256v-241.3568h-256z m-636.3136 307.2v197.461334c0 43.895467 29.252267 73.147733 73.1136 73.147733H321.877333V680.277333h-256z m329.1136 0v270.609067h241.390933V680.277333H394.922667z m307.2 0v270.609067h182.8864c43.861333 0 73.1136-29.252267 73.1136-73.147733V680.277333h-256z" fill="#1296db" p-id="2611"></path></svg>